<svg width="1650" height="1664" xmlns="http://www.w3.org/2000/svg" xmlns:xlink="http://www.w3.org/1999/xlink" xml:space="preserve" overflow="hidden"><g><path d="M112 1120C112 912.893 280.117 745 487.5 745 694.883 745 863 912.893 863 1120 863 1327.11 694.883 1495 487.5 1495 280.117 1495 112 1327.11 112 1120Z" fill="#FFC000" fill-rule="evenodd"/><path d="M310 718C310 433.573 540.573 203 825 203 1109.43 203 1340 433.573 1340 718 1340 1002.43 1109.43 1233 825 1233 540.573 1233 310 1002.43 310 718Z" fill="#FF0000" fill-rule="evenodd"/><path d="M437 758.5C437 539.519 614.743 362 834 362 1053.26 362 1231 539.519 1231 758.5 1231 977.481 1053.26 1155 834 1155 614.743 1155 437 977.481 437 758.5Z" fill="#FFFFFF" fill-rule="evenodd"/><text fill="#C00000" font-family="ADLaM Display,ADLaM Display_MSFontService,sans-serif" font-weight="700" font-size="761" transform="matrix(1 0 0 1 588.053 1025)">B</text><path d="M895 1079C895 890.671 1047.67 738 1236 738 1424.33 738 1577 890.671 1577 1079 1577 1267.33 1424.33 1420 1236 1420 1047.67 1420 895 1267.33 895 1079Z" fill="#00B050" fill-rule="evenodd"/></g></svg>