<svg width="1657" height="1657" xmlns="http://www.w3.org/2000/svg" xmlns:xlink="http://www.w3.org/1999/xlink" xml:space="preserve" overflow="hidden"><g transform="translate(3 3)"><rect x="0.499836" y="0.499836" width="1650" height="1650" stroke="#042433" stroke-width="6.875" stroke-miterlimit="8" stroke-opacity="0" fill="none"/><path d="M249 131C249 58.6507 307.651-1.6678e-14 380-3.33561e-14 452.349-6.67122e-14 511 58.6507 511 131 511 203.349 452.349 262 380 262 307.651 262 249 203.349 249 131Z" fill="#000000" fill-rule="evenodd" fill-opacity="0.0509804"/><path d="M950 292.5C950 253.564 981.564 222 1020.5 222 1059.44 222 1091 253.564 1091 292.5 1091 331.436 1059.44 363 1020.5 363 981.564 363 950 331.436 950 292.5Z" fill="#000000" fill-rule="evenodd" fill-opacity="0.0509804"/><path d="M1021 1479C1021 1417.7 1070.7 1368 1132 1368 1193.3 1368 1243 1417.7 1243 1479 1243 1540.3 1193.3 1590 1132 1590 1070.7 1590 1021 1540.3 1021 1479Z" fill="#000000" fill-rule="evenodd" fill-opacity="0.0509804"/><path d="M1306 981C1306 894.844 1375.84 825 1462 825 1548.16 825 1618 894.844 1618 981 1618 1067.16 1548.16 1137 1462 1137 1375.84 1137 1306 1067.16 1306 981Z" fill="#000000" fill-rule="evenodd" fill-opacity="0.0509804"/><path d="M630 761C630 728.415 656.191 702 688.5 702 720.809 702 747 728.415 747 761 747 793.585 720.809 820 688.5 820 656.191 820 630 793.585 630 761Z" fill="#000000" fill-rule="evenodd" fill-opacity="0.0509804"/><path d="M108 1175.5C108 1128.28 146.28 1090 193.5 1090 240.72 1090 279 1128.28 279 1175.5 279 1222.72 240.72 1261 193.5 1261 146.28 1261 108 1222.72 108 1175.5Z" fill="#000000" fill-rule="evenodd" fill-opacity="0.0509804"/></g></svg>