<svg width="1490" height="1490" xmlns="http://www.w3.org/2000/svg" xmlns:xlink="http://www.w3.org/1999/xlink" xml:space="preserve" overflow="hidden"><g transform="translate(-80 -80)"><path d="M1536.54 1208.65 1570 1208.65 1570 1419.81C1570 1502.76 1502.76 1570 1419.81 1570L1208.65 1570 1208.65 1536.54 1393.09 1536.54C1472.32 1536.54 1536.54 1472.32 1536.54 1393.09ZM80.0001 1208.65 113.458 1208.65 113.458 1393.09C113.458 1472.32 177.681 1536.54 256.905 1536.54L441.348 1536.54 441.348 1570 230.192 1570C147.244 1570 80.0001 1502.76 80.0001 1419.81ZM1208.65 80.0001 1419.81 80.0001C1502.76 80.0001 1570 147.244 1570 230.192L1570 441.348 1536.54 441.348 1536.54 256.905C1536.54 177.681 1472.32 113.458 1393.09 113.458L1208.65 113.458ZM230.192 80.0001 441.348 80.0001 441.348 113.458 256.905 113.458C177.681 113.458 113.458 177.681 113.458 256.905L113.458 441.348 80.0001 441.348 80.0001 230.192C80.0001 147.244 147.244 80.0001 230.192 80.0001Z" fill="#C00000" fill-rule="evenodd"/></g></svg>